<svg xmlns="http://www.w3.org/2000/svg" viewBox="0 0 45 30" role="img" aria-label="Flag of Colorado">
  <!-- Official Colorado state flag proportions (simplified SVG) -->
  <rect width="45" height="10" y="0" fill="#002868"/>
  <rect width="45" height="10" y="10" fill="#ffffff"/>
  <rect width="45" height="10" y="20" fill="#002868"/>
  <!-- Red C -->
  <path fill="#BF0A30" d="M15.5 4.2c-5.9 0-10.7 4.8-10.7 10.8s4.8 10.8 10.7 10.8c2.5 0 4.8-.9 6.6-2.3l-2.1-2.6a7.4 7.4 0 0 1-4.5 1.5c-4.1 0-7.4-3.3-7.4-7.4s3.3-7.4 7.4-7.4c1.7 0 3.3.6 4.5 1.5l2.1-2.6a10.5 10.5 0 0 0-6.6-2.3z"/>
  <!-- Gold disk -->
  <circle cx="15.5" cy="15" r="4.2" fill="#FFD100"/>
</svg>
